HIERARCHY
ROOT root
{
	OFFSET 0.000000 0.000000 0.000000
	CHANNELS 6 Xposition Yposition Zposition Zrotation Yrotation Xrotation
	JOINT lhip
	{
		OFFSET 0.058581 -0.082280 -0.017664
		CHANNELS 3 Zrotation Yrotation Xrotation
		JOINT lknee
		{
			OFFSET 0.043451 -0.386469 0.008037
			CHANNELS 3 Zrotation Yrotation Xrotation
			JOINT lankle
			{
				OFFSET -0.014790 -0.426874 -0.037428
				CHANNELS 3 Zrotation Yrotation Xrotation
				JOINT ltoe
				{
					OFFSET 0.041054 -0.060286 0.122042
					CHANNELS 3 Zrotation Yrotation Xrotation
					End Site
					{
						OFFSET 0.000000 0.000000 0.000000
					}
				}
			}
		}
	}
	JOINT rhip
	{
		OFFSET -0.060310 -0.090513 -0.013543
		CHANNELS 3 Zrotation Yrotation Xrotation
		JOINT rknee
		{
			OFFSET -0.043257 -0.383688 -0.004843
			CHANNELS 3 Zrotation Yrotation Xrotation
			JOINT rankle
			{
				OFFSET 0.019056 -0.420046 -0.034562
				CHANNELS 3 Zrotation Yrotation Xrotation
				JOINT rtoe
				{
					OFFSET -0.034840 -0.062106 0.130323
					CHANNELS 3 Zrotation Yrotation Xrotation
					End Site
					{
						OFFSET 0.000000 0.000000 0.000000
					}
				}
			}
		}
	}
	JOINT lowerback
	{
		OFFSET 0.004439 0.124404 -0.038385
		CHANNELS 3 Zrotation Yrotation Xrotation
		JOINT upperback
		{
			OFFSET 0.004488 0.137956 0.026820
			CHANNELS 3 Zrotation Yrotation Xrotation
			JOINT chest
			{
				OFFSET -0.002265 0.056032 0.002855
				CHANNELS 3 Zrotation Yrotation Xrotation
				JOINT lowerneck
				{
					OFFSET -0.013390 0.211636 -0.033468
					CHANNELS 3 Zrotation Yrotation Xrotation
					JOINT upperneck
					{
						OFFSET 0.010113 0.088937 0.050410
						CHANNELS 3 Zrotation Yrotation Xrotation
						End Site
						{
							OFFSET 0.000000 0.000000 0.000000
						}
					}
				}
				JOINT lclavicle
				{
					OFFSET 0.071702 0.114000 -0.018898
					CHANNELS 3 Zrotation Yrotation Xrotation
					JOINT lshoulder
					{
						OFFSET 0.122921 0.045205 -0.019046
						CHANNELS 3 Zrotation Yrotation Xrotation
						JOINT lelbow
						{
							OFFSET 0.255332 -0.015649 -0.022946
							CHANNELS 3 Zrotation Yrotation Xrotation
							JOINT lwrist
							{
								OFFSET 0.265709 0.012698 -0.007375
								CHANNELS 3 Zrotation Yrotation Xrotation
								End Site
								{
									OFFSET 0.000000 0.000000 0.000000
								}
							}
						}
					}
				}
				JOINT rclavicle
				{
					OFFSET -0.082954 0.112472 -0.023707
					CHANNELS 3 Zrotation Yrotation Xrotation
					JOINT rshoulder
					{
						OFFSET -0.113228 0.046853 -0.008472
						CHANNELS 3 Zrotation Yrotation Xrotation
						JOINT relbow
						{
							OFFSET -0.260127 -0.014369 -0.031269
							CHANNELS 3 Zrotation Yrotation Xrotation
							JOINT rwrist
							{
								OFFSET -0.269108 0.006794 -0.006027
								CHANNELS 3 Zrotation Yrotation Xrotation
								End Site
								{
									OFFSET 0.000000 0.000000 0.000000
								}
							}
						}
					}
				}
			}
		}
	}
}
MOTION
Frames: 5
Frame Time: 0.033333
-0.278997 0.307579 0.983222 174.055305 -0.540392 86.028182 -2.528874 -4.132521 -4.162540 -8.169296 -12.217564 11.993849 1.203662 3.304999 -23.824424 0.000000 -0.000000 0.000000 -12.330346 -3.922407 -15.098869 -4.531309 -6.003553 40.274800 3.479123 -10.464836 -16.389491 0.000000 -0.000000 0.000000 -0.503367 -0.480918 12.321163 -1.258473 -0.912693 0.451367 -2.913015 -0.561607 0.312120 3.687271 4.800524 1.320332 -1.710460 0.145516 11.579550 -27.124789 -1.280886 2.802515 -49.355627 -5.171019 27.142371 -141.631841 -70.759293 156.615187 11.593124 -8.596202 -36.845475 22.871773 6.954850 2.468705 51.419022 7.274494 27.185290 -139.071424 80.652003 -137.280593 -3.510064 8.804183 -39.610802 
-0.269744 0.304703 0.985694 177.632134 -0.798853 86.317541 -1.146467 -3.749400 -3.447940 -8.904793 -13.227343 9.253199 -0.114785 0.581392 -22.327961 0.000000 -0.000000 0.000000 -12.186692 -4.234983 -13.039031 -4.222678 -5.146677 33.621470 3.316593 -8.877685 -12.987947 0.000000 -0.000000 0.000000 -0.762780 -1.363790 11.145104 -1.610625 -2.577006 1.415345 -2.872680 -0.775744 -0.147068 3.248173 4.043223 1.948979 -0.877737 -0.189910 10.990554 -26.485677 -2.197681 2.629940 -51.399248 -6.738350 27.401297 -142.385817 -70.439740 158.368256 7.510916 -8.560480 -40.164011 21.257663 6.955533 1.980358 50.856373 7.961442 26.206511 -143.224588 76.163975 -139.289659 -2.610275 8.633261 -40.014379 
-0.260398 0.301710 0.987415 -179.335255 -1.141055 86.272801 -0.185413 -3.759440 -2.743303 -9.419631 -14.426205 7.222336 -1.458659 -1.353507 -20.887272 0.000000 -0.000000 0.000000 -11.765629 -4.186398 -11.349722 -4.310902 -5.146714 30.567306 3.840766 -8.815662 -11.404386 0.000000 -0.000000 0.000000 -0.998188 -1.996433 10.810535 -1.922651 -3.675520 1.660727 -2.950896 -1.041324 -0.376108 3.164156 3.663126 2.039261 -0.528105 -0.673300 10.857804 -25.748223 -2.825883 2.097288 -53.151295 -7.910982 27.553498 -142.597913 -70.270984 159.678490 5.332681 -8.335273 -42.469918 19.680287 6.712871 0.870480 50.375204 9.126312 24.831847 -141.773546 72.381948 -134.858048 -2.105084 7.600853 -36.877934 
-0.250286 0.299098 0.987761 -176.958043 -1.692361 86.252465 -0.042382 -4.024951 -2.341391 -9.017409 -15.092475 5.750182 -1.952704 -2.566996 -20.248574 0.000000 -0.000000 0.000000 -11.216819 -4.635714 -10.333320 -5.163547 -6.287025 30.576718 4.192464 -10.393880 -12.869537 0.000000 -0.000000 0.000000 -1.612514 -2.117991 10.372536 -2.208159 -4.241066 1.512857 -3.024186 -1.107563 -0.102400 3.376920 3.155726 1.787434 -0.111418 -1.371518 10.826680 -25.056421 -2.836818 1.454218 -54.712418 -8.676956 27.651194 -142.456234 -70.208770 160.586276 6.530449 -7.975011 -43.033486 18.666145 6.162023 -0.636422 49.834608 10.474117 23.161868 -138.424395 69.747518 -128.586528 -2.454025 7.025900 -31.350080 
-0.238947 0.295905 0.987371 -175.817020 -2.203531 86.220112 0.188934 -4.122694 -1.991748 -8.531523 -15.317799 4.491262 -2.433233 -3.540384 -19.604822 0.000000 -0.000000 0.000000 -10.691796 -5.553293 -9.296447 -5.598567 -7.792290 29.178315 4.025899 -11.225461 -14.641719 0.000000 -0.000000 0.000000 -2.166989 -1.843981 10.086367 -2.703912 -4.365427 1.464317 -3.120935 -0.633552 -0.143222 3.799195 2.723733 1.544110 0.426048 -2.408404 10.595611 -24.520516 -2.268408 0.734064 -55.587489 -8.883808 27.166937 -143.481806 -70.000167 162.865374 7.162545 -7.878643 -43.634563 18.169673 6.099503 -1.433675 49.411210 11.994963 20.860552 -132.716361 67.838433 -120.318706 -2.672375 6.519822 -26.096518 
